<mxfile host="app.diagrams.net" modified="2024-01-30T02:57:29.758Z" agent="Mozilla/5.0 (Windows NT 10.0; Win64; x64) AppleWebKit/537.36 (KHTML, like Gecko) Chrome/121.0.0.0 Safari/537.36" etag="AgniWqnWWAhToUC2FNfw" version="23.0.2" type="github">
  <diagram name="第 1 页" id="Zmdk5itbHJkT2e2bSqB2">
    <mxGraphModel dx="1100" dy="585" grid="0" gridSize="10" guides="1" tooltips="1" connect="1" arrows="1" fold="1" page="1" pageScale="1" pageWidth="1100" pageHeight="850" math="0" shadow="0">
      <root>
        <mxCell id="0" />
        <mxCell id="1" parent="0" />
        <mxCell id="TQgG1dKfykCcX3F4v5cX-8" style="edgeStyle=orthogonalEdgeStyle;rounded=0;orthogonalLoop=1;jettySize=auto;html=1;exitX=1;exitY=0.5;exitDx=0;exitDy=0;" edge="1" parent="1" source="TQgG1dKfykCcX3F4v5cX-1">
          <mxGeometry relative="1" as="geometry">
            <mxPoint x="457.5" y="113.75" as="targetPoint" />
          </mxGeometry>
        </mxCell>
        <mxCell id="TQgG1dKfykCcX3F4v5cX-1" value="&lt;font style=&quot;font-size: 14px;&quot;&gt;查找审批人&lt;/font&gt;" style="shape=process;whiteSpace=wrap;html=1;backgroundOutline=1;" vertex="1" parent="1">
          <mxGeometry x="230" y="84" width="120" height="60" as="geometry" />
        </mxCell>
        <mxCell id="TQgG1dKfykCcX3F4v5cX-9" style="edgeStyle=orthogonalEdgeStyle;rounded=0;orthogonalLoop=1;jettySize=auto;html=1;exitX=1;exitY=0.5;exitDx=0;exitDy=0;" edge="1" parent="1" source="TQgG1dKfykCcX3F4v5cX-2" target="TQgG1dKfykCcX3F4v5cX-3">
          <mxGeometry relative="1" as="geometry" />
        </mxCell>
        <mxCell id="TQgG1dKfykCcX3F4v5cX-2" value="&lt;font style=&quot;font-size: 14px;&quot;&gt;流程内容组装&lt;/font&gt;" style="shape=process;whiteSpace=wrap;html=1;backgroundOutline=1;" vertex="1" parent="1">
          <mxGeometry x="460" y="86" width="120" height="60" as="geometry" />
        </mxCell>
        <mxCell id="TQgG1dKfykCcX3F4v5cX-10" style="edgeStyle=orthogonalEdgeStyle;rounded=0;orthogonalLoop=1;jettySize=auto;html=1;exitX=1;exitY=0.5;exitDx=0;exitDy=0;" edge="1" parent="1" source="TQgG1dKfykCcX3F4v5cX-3" target="TQgG1dKfykCcX3F4v5cX-6">
          <mxGeometry relative="1" as="geometry" />
        </mxCell>
        <mxCell id="TQgG1dKfykCcX3F4v5cX-3" value="&lt;font style=&quot;font-size: 14px;&quot;&gt;发起流程&lt;br&gt;记录申诉记录表&lt;/font&gt;" style="shape=process;whiteSpace=wrap;html=1;backgroundOutline=1;" vertex="1" parent="1">
          <mxGeometry x="685" y="86" width="127" height="60" as="geometry" />
        </mxCell>
        <mxCell id="TQgG1dKfykCcX3F4v5cX-7" style="edgeStyle=orthogonalEdgeStyle;rounded=0;orthogonalLoop=1;jettySize=auto;html=1;exitX=1;exitY=0.5;exitDx=0;exitDy=0;exitPerimeter=0;entryX=0;entryY=0.5;entryDx=0;entryDy=0;" edge="1" parent="1" source="TQgG1dKfykCcX3F4v5cX-5" target="TQgG1dKfykCcX3F4v5cX-1">
          <mxGeometry relative="1" as="geometry" />
        </mxCell>
        <mxCell id="TQgG1dKfykCcX3F4v5cX-5" value="&lt;font style=&quot;font-size: 18px;&quot;&gt;开始&lt;/font&gt;" style="strokeWidth=2;html=1;shape=mxgraph.flowchart.terminator;whiteSpace=wrap;" vertex="1" parent="1">
          <mxGeometry x="11" y="85" width="100" height="60" as="geometry" />
        </mxCell>
        <mxCell id="TQgG1dKfykCcX3F4v5cX-6" value="&lt;font style=&quot;font-size: 18px;&quot;&gt;结束&lt;/font&gt;" style="strokeWidth=2;html=1;shape=mxgraph.flowchart.terminator;whiteSpace=wrap;" vertex="1" parent="1">
          <mxGeometry x="928" y="86" width="100" height="60" as="geometry" />
        </mxCell>
      </root>
    </mxGraphModel>
  </diagram>
</mxfile>
